<svg width="37" height="37" viewBox="0 0 37 37" fill="none" xmlns="http://www.w3.org/2000/svg">
<path d="M17.2887 1.90205L17.3076 34.1436L18.727 34.1444L18.7081 1.90289L17.2887 1.90205Z" fill="black"/>
<path d="M1.89175 17.307L1.89258 18.7264L34.1341 18.7453L34.1332 17.326L1.89175 17.307Z" fill="black"/>
<path d="M22.2917 6.41798L21.0978 7.1901L18.0037 2.41081L14.9152 7.18648L13.7203 6.41296L17.4055 0.719277C17.5358 0.518619 17.7616 0.393293 18.0025 0.393434C18.2434 0.393575 18.4642 0.514143 18.5999 0.719975L22.2917 6.41798Z" fill="black"/>
<path d="M18.5247 35.4419C18.3943 35.5723 18.2137 35.6524 18.023 35.6523C17.7821 35.6522 17.5612 35.5316 17.4256 35.3258L13.7338 29.6278L14.9277 28.8557L18.0218 33.6349L21.1103 28.8593L22.3051 29.6328L18.62 35.3265C18.5899 35.3666 18.5598 35.4067 18.5247 35.4419Z" fill="black"/>
<path d="M6.3175 22.3015L0.619502 18.6096C0.418691 18.479 0.293102 18.2531 0.29296 18.0123C0.292819 17.7714 0.413129 17.5506 0.618803 17.4153L6.31248 13.7301L7.086 14.9249L2.31034 18.0134L7.08963 21.1075L6.3175 22.3015Z" fill="black"/>
<path d="M35.5416 18.535C35.5065 18.5701 35.4663 18.6002 35.4262 18.6303L29.7325 22.3154L28.959 21.1206L33.7347 18.0321L28.9554 14.938L29.7275 13.7441L35.4255 17.4359C35.6263 17.5665 35.7519 17.7924 35.752 18.0333C35.7522 18.224 35.672 18.4046 35.5416 18.535Z" fill="black"/>
</svg>
